HIERARCHY
ROOT Hips
{
	OFFSET 0.00 0.00 0.00
	CHANNELS 6 Xposition Yposition Zposition Xrotation Yrotation Zrotation
	JOINT RightUpLeg
	{
		OFFSET -4.47808 0.00000 0.00000
		CHANNELS 3 Xrotation Yrotation Zrotation
		JOINT RightLeg
		{
			OFFSET 0.00000 -16.40577 0.00000
			CHANNELS 3 Xrotation Yrotation Zrotation
			JOINT RightFoot
			{
				OFFSET 0.00000 -14.64414 0.00000
				CHANNELS 3 Xrotation Yrotation Zrotation
				JOINT RightToeBase
				{
					OFFSET 0.00000 -1.50274 5.60831
					CHANNELS 3 Xrotation Yrotation Zrotation
					End Site
					{
						OFFSET 0.00000 0.00000 2.95275
					}
				}
			}
		}
	}
	JOINT LeftUpLeg
	{
		OFFSET 4.47808 0.00000 0.00000
		CHANNELS 3 Xrotation Yrotation Zrotation
		JOINT LeftLeg
		{
			OFFSET 0.00000 -16.40577 0.00000
			CHANNELS 3 Xrotation Yrotation Zrotation
			JOINT LeftFoot
			{
				OFFSET 0.00000 -14.64414 0.00000
				CHANNELS 3 Xrotation Yrotation Zrotation
				JOINT LeftToeBase
				{
					OFFSET 0.00000 -1.50274 5.60831
					CHANNELS 3 Xrotation Yrotation Zrotation
					End Site
					{
						OFFSET 0.00000 0.00000 2.95275
					}
				}
			}
		}
	}
	JOINT Spine
	{
		OFFSET 0.00000 6.06821 0.00000
		CHANNELS 3 Xrotation Yrotation Zrotation
		JOINT RightShoulder
		{
			OFFSET 0.00000 10.01392 0.00000
			CHANNELS 3 Xrotation Yrotation Zrotation
			JOINT RightArm
			{
				OFFSET -7.19022 0.00000 0.00000
				CHANNELS 3 Xrotation Yrotation Zrotation
				JOINT RightForeArm
				{
					OFFSET -10.17747 0.00000 0.00000
					CHANNELS 3 Yrotation Zrotation Xrotation
					JOINT RightHand
					{
						OFFSET -8.39211 0.00000 0.00000
						CHANNELS 3 Xrotation Yrotation Zrotation
						End Site
						{
							OFFSET -3.93700 0.00000 0.00000
						}
						JOINT RightHandThumb1
						{
							OFFSET 0.00000 0.00000 0.00000
							CHANNELS 3 Xrotation Zrotation Yrotation
							End Site
							{
								OFFSET 0.00000 0.00000 3.93700
							}
						}
					}
				}
			}
		}
		JOINT LeftShoulder
		{
			OFFSET 0.00000 10.01392 0.00000
			CHANNELS 3 Xrotation Yrotation Zrotation
			JOINT LeftArm
			{
				OFFSET 7.19022 0.00000 0.00000
				CHANNELS 3 Xrotation Yrotation Zrotation
				JOINT LeftForeArm
				{
					OFFSET 10.17747 0.00000 0.00000
					CHANNELS 3 Yrotation Zrotation Xrotation
					JOINT LeftHand
					{
						OFFSET 8.39211 0.00000 0.00000
						CHANNELS 3 Xrotation Yrotation Zrotation
						End Site
						{
							OFFSET 3.93700 0.00000 0.00000
						}
						JOINT LeftHandThumb1
						{
							OFFSET 0.00000 0.00000 0.00000
							CHANNELS 3 Xrotation Zrotation Yrotation
							End Site
							{
								OFFSET 0.00000 0.00000 3.93700
							}
						}
					}
				}
			}
		}
		JOINT Head
		{
			OFFSET 0.00000 15.77748 0.00000
			CHANNELS 3 Xrotation Yrotation Zrotation
			End Site
			{
				OFFSET 0.00000 4.52755 0.00000
			}
		}
	}
}
MOTION
Frames: 13
Frame Time: 0.008333
 0.0758 27.3043 -2.5975 19.7029 -23.2947 12.5761 -77.1769 -27.7453 -47.8131 66.9302 0.0000 -0.0000 -25.9106 2.5154 3.0761 0.4818 -0.0000 0.0000 -12.1279 24.6149 29.1196 5.0324 0.0000 0.0000 -1.4866 22.0432 -40.4753 10.4457 0.0000 0.0000 -12.3950 3.0800 3.4605 1.3771 -21.1584 -29.6512 -53.0558 -21.0103 33.1919 21.6372 0.0000 -20.6737 0.8725 18.9359 -2.6869 32.8623 0.0000 -24.3270 -3.8406 28.2435 30.9950 -39.8418 26.0003 -24.6562 -6.7662 -0.0000 -1.9927 -0.0127 0.1829 3.9728 33.1476 -0.0000 26.2537 8.5972 4.2165 -8.9459
 0.0909 27.3171 -2.5842 19.7326 -23.3314 12.6072 -77.1578 -27.7415 -47.7903 66.8224 0.0000 -0.0000 -25.8130 2.5355 3.1493 0.4309 -0.0000 -0.0000 -12.0040 24.4882 29.0167 5.0403 -0.0000 -0.0000 -1.4932 22.2075 -40.4355 10.4203 0.0000 -0.0000 -12.4308 3.3577 3.4835 1.2535 -21.1434 -29.7209 -53.1621 -20.9656 33.1035 21.4754 0.0000 -20.7017 0.8412 18.9256 -2.5921 32.8623 0.0000 -24.3270 -3.9367 28.1654 31.1166 -39.7507 26.1472 -24.5549 -6.5840 -0.0000 -2.5763 -0.0141 0.2014 4.0158 33.1476 -0.0000 26.2537 8.4119 4.0601 -8.9005
 0.1090 27.3296 -2.5697 19.7739 -23.4222 12.6421 -77.1352 -27.7350 -47.7312 66.7040 -0.0000 0.0000 -25.7054 2.5685 3.1364 0.2370 0.0000 0.0000 -11.8894 24.4810 28.9348 5.0036 0.0000 0.0000 -1.4647 22.3320 -40.4997 10.4067 0.0000 0.0000 -12.4598 3.6719 3.5393 1.1209 -21.1036 -29.8196 -53.2602 -20.9150 33.0159 21.3299 0.0000 -20.8030 0.8162 19.0574 -2.4983 32.8623 0.0000 -24.3270 -4.0154 28.1212 31.1582 -39.8006 26.3332 -24.3617 -6.4896 -0.0000 -3.1360 -0.0125 0.1731 4.1432 33.1476 -0.0000 26.2537 8.2223 3.9614 -8.8878
 0.1283 27.3406 -2.5554 19.8452 -23.5389 12.6851 -77.1252 -27.7226 -47.6433 66.5860 0.0000 0.0000 -25.5878 2.6028 3.1590 0.4866 -0.0000 0.0000 -11.8128 24.5682 28.8678 4.9292 0.0000 0.0000 -1.4237 22.4533 -40.6613 10.4770 0.0000 -0.0000 -12.5117 3.9781 3.6001 1.0917 -21.0699 -29.8959 -53.3938 -20.8495 32.9607 21.2333 0.0000 -21.0143 0.8327 18.9873 -2.5577 32.8623 0.0000 -24.3270 -4.0505 28.2173 31.1970 -40.0192 26.5135 -24.1934 -6.4745 -0.0000 -3.5860 -0.0254 0.3379 4.2930 33.1476 -0.0000 26.2537 8.0457 3.9277 -8.8688
 0.1448 27.3505 -2.5435 19.8841 -23.6738 12.7013 -77.0843 -27.7292 -47.5405 66.4806 0.0000 -0.0000 -25.4624 2.6559 3.1637 0.3286 -0.0000 -0.0000 -11.7591 24.7319 28.8657 4.8630 0.0000 0.0000 -1.3888 22.3727 -40.7374 10.3482 -0.0000 0.0000 -12.5161 4.2870 3.6740 0.9786 -20.9562 -30.0000 -53.4642 -20.8545 32.8697 21.2129 0.0000 -21.0683 0.7895 18.9528 -2.4295 32.8623 0.0000 -24.3270 -4.0873 28.3008 31.2100 -40.2607 26.7531 -23.9789 -6.5711 -0.0000 -4.2173 -0.0396 0.4692 4.8268 33.1476 -0.0000 26.2537 7.8527 3.8782 -8.8720
 0.1643 27.3586 -2.5290 19.9131 -23.7868 12.7499 -77.0942 -27.7020 -47.5178 66.4061 -0.0000 -0.0000 -25.3344 2.7120 3.2403 0.4494 0.0000 0.0000 -11.6993 24.9515 28.8067 4.7613 0.0000 -0.0000 -1.3505 22.3165 -40.8639 10.3251 -0.0000 0.0000 -12.5196 4.5970 3.7019 0.8015 -20.8258 -30.1187 -53.4095 -20.7992 32.8156 21.1883 -0.0000 -21.4005 0.8765 19.0111 -2.6889 32.8623 0.0000 -24.3270 -4.1198 28.3744 31.2076 -40.5303 26.9722 -23.7352 -6.6645 -0.0000 -4.6260 -0.0565 0.6223 5.1897 33.1476 -0.0000 26.2537 7.6602 3.8373 -8.8516
 0.1801 27.3659 -2.5126 19.9214 -23.9243 12.7786 -77.0835 -27.7060 -47.4892 66.3201 -0.0000 0.0000 -25.2537 2.7720 3.1432 0.5675 -0.0000 -0.0000 -11.6191 25.2297 28.7862 4.6188 0.0000 -0.0000 -1.2920 22.1416 -40.9406 10.2693 -0.0000 0.0000 -12.5082 4.9436 3.7260 0.7095 -20.7298 -30.1806 -53.4784 -20.8108 32.7311 21.2104 -0.0000 -21.7955 0.8344 19.0900 -2.5497 32.8623 0.0000 -24.3270 -4.1505 28.4225 31.2374 -40.8406 27.2712 -23.4729 -6.8352 -0.0000 -4.8991 -0.0655 0.7026 5.3293 33.1476 -0.0000 26.2537 7.4687 3.7396 -8.8198
 0.2012 27.3749 -2.5042 19.9811 -24.0060 12.8265 -77.1664 -27.7116 -47.5036 66.2457 0.0000 -0.0000 -25.0841 2.8829 3.1616 0.4879 0.0000 0.0000 -11.5753 25.3654 28.7329 4.5139 0.0000 0.0000 -1.2461 22.0855 -41.0533 10.2022 -0.0000 0.0000 -12.5454 5.2582 3.7552 0.6101 -20.6130 -30.2780 -53.6081 -20.9166 32.6752 21.2624 -0.0000 -22.0644 0.9919 19.1846 -3.0158 32.8623 0.0000 -24.3270 -4.1645 28.4642 31.2337 -41.1012 27.5390 -23.2200 -7.0175 -0.0000 -5.2833 -0.0726 0.7750 5.3536 33.1476 -0.0000 26.2537 7.2867 3.6386 -8.8221
 0.2217 27.3814 -2.4939 20.0286 -24.0418 12.8798 -77.3052 -27.7252 -47.6113 66.2042 -0.0000 -0.0000 -24.9577 2.9791 3.1465 0.5443 -0.0000 -0.0000 -11.5028 25.4291 28.6525 4.4024 -0.0000 -0.0000 -1.2175 22.0328 -41.1508 10.1775 -0.0000 -0.0000 -12.5891 5.5168 3.7611 0.5585 -20.5474 -30.3621 -53.8059 -21.0436 32.6443 21.4097 -0.0000 -22.5527 1.0237 19.3373 -3.0888 32.8623 0.0000 -24.3270 -4.1491 28.5429 31.2194 -41.3478 27.7615 -22.9885 -7.1810 -0.0000 -5.5684 -0.0766 0.7998 5.4728 33.1476 -0.0000 26.2537 7.1253 3.5490 -8.8503
 0.2469 27.3881 -2.4839 20.0925 -24.0521 12.9742 -77.5187 -27.7106 -47.7876 66.1772 0.0000 0.0000 -24.7987 3.0844 3.1904 0.5585 0.0000 -0.0000 -11.3703 25.3799 28.4993 4.2848 0.0000 0.0000 -1.1896 22.0130 -41.2096 10.0509 -0.0000 0.0000 -12.6549 5.7522 3.7262 0.5698 -20.4829 -30.4363 -53.9744 -21.1436 32.6519 21.5356 -0.0000 -22.9397 0.9850 19.4854 -2.9506 32.8623 0.0000 -24.3270 -4.1147 28.6698 31.1812 -41.5513 27.8900 -22.7927 -7.3187 -0.0000 -5.9330 -0.0802 0.8229 5.5682 33.1476 -0.0000 26.2537 6.9772 3.4778 -8.8802
 0.2729 27.3924 -2.4760 20.1595 -24.0409 13.0804 -77.7718 -27.6962 -48.0059 66.1591 -0.0000 -0.0000 -24.6424 3.1883 3.2493 0.5279 0.0000 0.0000 -11.2963 25.3505 28.3561 4.2214 -0.0000 -0.0000 -1.2269 21.9174 -41.1970 9.9628 -0.0000 -0.0000 -12.7225 5.9852 3.6600 0.5096 -20.3954 -30.4947 -54.1968 -21.2740 32.6217 21.6784 -0.0000 -23.1955 1.0046 19.4652 -3.0122 32.8623 0.0000 -24.3270 -4.1239 28.7435 31.2027 -41.6545 28.0402 -22.6171 -7.4262 -0.0000 -6.3122 -0.0816 0.8294 5.6175 33.1476 -0.0000 26.2537 6.8277 3.4022 -8.8722
 0.3006 27.3966 -2.4709 20.2530 -24.0161 13.2026 -78.0617 -27.6687 -48.2261 66.1565 -0.0000 0.0000 -24.4862 3.2963 3.2836 0.4725 0.0000 -0.0000 -11.2206 25.2456 28.1844 4.1725 0.0000 0.0000 -1.2816 21.9251 -41.1977 9.8718 0.0000 -0.0000 -12.8159 6.2312 3.5854 0.4490 -20.3503 -30.5551 -54.3191 -21.3180 32.6603 21.8074 -0.0000 -23.5990 1.0027 19.5957 -2.9874 32.8623 0.0000 -24.3270 -4.1713 28.7808 31.2264 -41.6692 28.1216 -22.4545 -7.4763 -0.0000 -6.7388 -0.0828 0.8528 5.5479 33.1476 -0.0000 26.2537 6.6814 3.3184 -8.8665
 0.3234 27.3984 -2.4662 20.3232 -23.9853 13.2448 -78.3123 -27.7111 -48.4312 66.1569 -0.0000 0.0000 -24.3442 3.3825 3.3130 0.5126 0.0000 -0.0000 -11.1372 25.0701 28.1167 4.1387 -0.0000 -0.0000 -1.3777 21.8221 -41.1790 9.7180 -0.0000 0.0000 -12.9112 6.4587 3.5918 0.4300 -20.3739 -30.5594 -54.6233 -21.2601 32.6922 21.8667 -0.0000 -23.6764 1.1641 19.6398 -3.4596 32.8623 0.0000 -24.3270 -4.1619 28.8734 31.2097 -41.8443 28.1965 -22.2803 -7.5059 -0.0000 -7.0437 -0.0793 0.8120 5.5750 33.1476 -0.0000 26.2537 6.5659 3.2111 -8.9175
